<svg width="295" height="81" viewBox="0 0 295 81" fill="none" xmlns="http://www.w3.org/2000/svg">
<path d="M115.784 68.5436C120.584 68.5436 124.534 66.6436 127.584 63.0936L123.684 58.4936C121.684 60.6436 119.234 62.1436 116.034 62.1436C110.184 62.1436 106.384 57.2936 106.384 49.2436C106.384 41.2936 110.584 36.4936 116.184 36.4936C118.984 36.4936 121.134 37.7936 123.034 39.5936L126.884 34.8936C124.484 32.3936 120.734 30.1436 116.034 30.1436C106.684 30.1436 98.8339 37.2936 98.8339 49.4936C98.8339 61.8436 106.434 68.5436 115.784 68.5436ZM132.945 67.8436H140.295V48.5936C142.345 46.5436 143.795 45.4436 146.095 45.4436C148.845 45.4436 150.045 46.9436 150.045 51.2936V67.8436H157.395V50.3936C157.395 43.3436 154.795 39.1436 148.745 39.1436C144.945 39.1436 142.195 41.1436 139.945 43.2436L140.295 37.9936V27.9436H132.945V67.8436ZM198.912 67.8436H206.262V51.1436C207.812 47.0936 210.462 45.6436 212.662 45.6436C213.812 45.6436 214.612 45.7936 215.612 46.0936L216.862 39.7436C216.012 39.3936 215.112 39.1436 213.562 39.1436C210.662 39.1436 207.662 41.1436 205.612 44.7936H205.462L204.912 39.8436H198.912V67.8436ZM220.689 67.8436H228.039V39.8436H220.689V67.8436ZM224.389 35.3436C226.889 35.3436 228.639 33.7436 228.639 31.2936C228.639 28.8936 226.889 27.2936 224.389 27.2936C221.839 27.2936 220.089 28.8936 220.089 31.2936C220.089 33.7436 221.839 35.3436 224.389 35.3436ZM246.125 68.5436C248.575 68.5436 250.525 67.9936 252.025 67.4936L250.825 62.1436C250.075 62.4436 248.975 62.7436 248.075 62.7436C245.575 62.7436 244.275 61.2436 244.275 58.0436V45.6436H251.175V39.8436H244.275V32.2936H238.175L237.325 39.8436L232.975 40.1936V45.6436H236.925V58.0436C236.925 64.2936 239.475 68.5436 246.125 68.5436ZM259.321 79.0936C265.571 79.0936 268.571 75.2936 271.021 68.6936L280.971 39.8436H273.921L270.071 52.8436C269.421 55.4436 268.721 58.1436 268.071 60.7436H267.821C267.021 58.0436 266.321 55.3436 265.471 52.8436L261.021 39.8436H253.621L264.521 67.3436L264.021 68.9936C263.221 71.4436 261.621 73.2436 258.771 73.2436C258.121 73.2436 257.321 73.0436 256.821 72.8936L255.471 78.5436C256.571 78.8936 257.671 79.0936 259.321 79.0936Z" fill="white"/>
<g clip-path="url(#clip0)">
<path fill-rule="evenodd" clip-rule="evenodd" d="M178 35.7778C190.759 22.6621 222.66 45.6132 178 75.1251C133.339 45.6161 165.24 22.6621 178 35.7778Z" fill="#FFD666"/>
</g>
<path d="M57 8L55.36 9.7975C51.6875 13.84 48.66 15.6475 46.14 16.83C43.62 18.01 41.5025 18.3625 39.4225 19.955C37.205 21.655 33.9825 24.915 32.625 30.735C29.715 31.37 27.585 32.485 25.905 33.9375C24.245 35.3725 22.995 37.005 21.455 38.7825C21.4425 38.8025 21.4625 38.84 21.455 38.86C19.245 41.4 17.3125 44.135 13.5625 45.58L12 46.205V72.9225H59.6575C62.39 72.775 64.285 70.8825 65.4375 69.015C66.5875 67.15 67.225 65.13 67.5475 63.47C68.3775 59.24 69.89 47.0625 69.89 47.0625L69.97 46.83V46.595C69.89 44.905 69.195 43.47 68.3275 42.14L71.14 33.7825L75.595 27.0625L76.845 25.265L75.2025 23.7825L58.7975 9.5625L57 8ZM57.1575 14.875L70.2025 26.205L66.765 31.28L66.5325 31.5175L66.4525 31.9075L64.1875 38.625C63.005 38.1375 61.7875 37.795 60.4375 37.845H60.28L44.5 37.9225H42V47.61C41.65 50.335 40.135 51.39 38.25 52.1425C37.625 52.395 37.5475 52.2575 37 52.375V37.8475C36.59 28.58 39.89 25.9125 42.47 23.94C43.1825 23.3925 45.27 22.76 48.25 21.3625C50.74 20.19 53.835 18.09 57.1575 14.8775V14.875ZM32.1575 36.36C32.1475 36.9275 31.97 37.3275 32 37.9225V57.9225H34.5C34.5 57.9225 37.175 57.8925 40.0475 56.75C42.9175 55.6075 46.385 52.9325 47 48.235V42.9225L60.4375 42.845H60.515C61.6124 42.7849 62.689 43.1621 63.509 43.894C64.3289 44.6259 64.8255 45.6528 64.89 46.75C64.88 46.79 64.765 47.7175 64.735 47.9225H54.5V52.9225H64.11C63.845 54.855 63.6025 56.0675 63.3275 57.9225H54.5V62.9225H62.5475C62.2521 64.132 61.7777 65.2906 61.14 66.36C60.4575 67.4725 59.87 67.8925 59.345 67.9225H17V49.25C21.0525 47.1 23.5725 44.0075 25.2025 42.1425C26.8925 40.2075 28.0525 38.7425 29.1875 37.7675C29.93 37.1325 31.0925 36.77 32.1575 36.36V36.36Z" fill="white"/>
<defs>
<clipPath id="clip0">
<rect width="46" height="46" fill="white" transform="translate(155 32)"/>
</clipPath>
</defs>
</svg>
