<svg width="80" height="80" viewBox="0 0 80 80" fill="none" xmlns="http://www.w3.org/2000/svg">
<path d="M33.3333 53.3333L50 36.6667L61.6 25.0667L63.3333 23.3333L33.3333 53.3333ZM63.3333 3.33334H16.6667C12.9667 3.33334 10 6.30001 10 10V53.1C10 55.4 11.1667 57.4334 12.9333 58.6334L40 76.6667L67.0333 58.6334C68.8 57.4334 70 55.4 70 53.1V10C70 8.2319 69.2976 6.53621 68.0474 5.28597C66.7971 4.03572 65.1014 3.33334 63.3333 3.33334Z" fill="#FFD666"/>
<path d="M49.6688 9.60001L48.6167 10.7532C46.2607 13.3465 44.3185 14.5061 42.7018 15.2647C41.0852 16.0217 39.7267 16.2479 38.3923 17.2695C36.9697 18.3601 34.9024 20.4515 34.0315 24.1852C32.1647 24.5926 30.7982 25.3079 29.7205 26.2397C28.6555 27.1603 27.8536 28.2076 26.8657 29.3479C26.8576 29.3607 26.8705 29.3848 26.8657 29.3976C25.4479 31.0271 24.2081 32.7817 21.8024 33.7087L20.8 34.1097V51.2497H51.3737C53.1267 51.1551 54.3424 49.941 55.0817 48.7429C55.8195 47.5465 56.2285 46.2506 56.4354 45.1857C56.9678 42.472 57.9381 34.6598 57.9381 34.6598L57.9895 34.5106V34.3598C57.9381 33.2757 57.4923 32.3551 56.9358 31.5018L58.7401 26.1402L61.5981 21.8292L62.4 20.676L61.3463 19.7249L50.822 10.6024L49.6688 9.60001ZM49.7699 14.0105L58.1386 21.2791L55.9334 24.5348L55.7842 24.6872L55.7329 24.9374L54.2798 29.2469C53.5212 28.9341 52.7402 28.7144 51.8741 28.7465H51.773L41.6497 28.7962H40.0459V35.011C39.8213 36.7592 38.8494 37.436 37.6401 37.9187C37.2392 38.0807 37.1895 37.9925 36.8382 38.0679V28.7481C36.5752 22.8027 38.6923 21.0914 40.3474 19.826C40.8045 19.4748 42.1437 19.069 44.0554 18.1724C45.6529 17.4203 47.6384 16.073 49.7699 14.0121V14.0105ZM33.7316 27.7938C33.7252 28.1579 33.6113 28.4145 33.6306 28.7962V41.6268H35.2344C35.2344 41.6268 36.9505 41.6075 38.7933 40.8746C40.6345 40.1416 42.859 38.4255 43.2535 35.412V32.0038L51.8741 31.9541H51.9238C52.6279 31.9156 53.3185 32.1575 53.8445 32.6271C54.3706 33.0966 54.6891 33.7554 54.7305 34.4593C54.7241 34.4849 54.6503 35.08 54.6311 35.2115H48.065V38.4191H54.2301C54.0601 39.6589 53.9045 40.4367 53.7281 41.6268H48.065V44.8344H53.2277C53.0382 45.6104 52.7339 46.3536 52.3248 47.0397C51.8869 47.7534 51.51 48.0228 51.1732 48.0421H24.0076V36.0631C26.6074 34.6838 28.2241 32.6999 29.2698 31.5034C30.354 30.2621 31.0981 29.3222 31.8263 28.6967C32.3026 28.2894 33.0484 28.0568 33.7316 27.7938V27.7938Z" fill="white"/>
</svg>
